<svg width="40" height="40" viewBox="0 0 40 40" fill="none" xmlns="http://www.w3.org/2000/svg">
<rect x="0.5" y="0.5" width="39" height="39" rx="9.5" stroke="#111111" stroke-opacity="0.1"/>
<path d="M22.64 11.4802C22.82 11.4802 23 11.4802 23.36 11.4802V14.1802C23.18 14.1802 22.82 14.1802 22.46 14.1802C22.1 14.1802 21.74 14.1802 21.56 14.3602C21.38 14.5402 21.38 14.7202 21.38 15.1402C21.38 15.5002 21.38 15.7402 21.38 16.1002H23.36V18.3802H21.38V28.2802H18.32V18.3202H16.7V16.0402H18.32V15.2602C18.32 13.9402 18.5 12.9802 18.86 12.5602C19.4 11.7802 20.48 11.4202 22.1 11.4202C22.28 11.4802 22.46 11.4802 22.64 11.4802Z" fill="#111111"/>
</svg>
