<svg width="40" height="40" viewBox="0 0 40 40" fill="none" xmlns="http://www.w3.org/2000/svg">
<rect x="0.5" y="0.5" width="39" height="39" rx="9.5" stroke="#111111" stroke-opacity="0.1"/>
<path d="M29.5382 16.0669C29.5264 15.2611 29.3772 14.4617 29.0914 13.7081C28.5914 12.4212 27.5732 11.4037 26.2841 10.9055C25.5389 10.6256 24.7509 10.4755 23.9534 10.4584C22.9278 10.4127 22.6026 10.3999 19.9989 10.3999C17.3953 10.3999 17.0616 10.3999 16.0434 10.4584C15.2469 10.4755 14.459 10.6256 13.7137 10.9055C12.4247 11.4037 11.4054 12.4212 10.9064 13.7081C10.626 14.4521 10.4746 15.2388 10.4597 16.0339C10.4139 17.0589 10.4 17.3836 10.4 19.9829C10.4 22.5822 10.4 22.9143 10.4597 23.9319C10.4757 24.7281 10.626 25.5136 10.9064 26.2598C11.4065 27.5456 12.4247 28.5632 13.7148 29.0613C14.4569 29.3508 15.2448 29.5148 16.0444 29.5403C17.0712 29.5861 17.3964 29.5999 20 29.5999C22.6036 29.5999 22.9374 29.5999 23.9556 29.5403C24.752 29.5243 25.5399 29.3742 26.2863 29.0943C27.5753 28.5951 28.5935 27.5775 29.0936 26.2917C29.374 25.5466 29.5243 24.7611 29.5403 23.9638C29.5861 22.9398 29.6 22.6152 29.6 20.0148C29.5979 17.4155 29.5979 17.0855 29.5382 16.0669ZM19.9925 24.8984C17.2695 24.8984 15.0635 22.6961 15.0635 19.9776C15.0635 17.259 17.2695 15.0567 19.9925 15.0567C22.7135 15.0567 24.9215 17.259 24.9215 19.9776C24.9215 22.6961 22.7135 24.8984 19.9925 24.8984ZM25.1177 16.0222C24.4812 16.0222 23.9684 15.5091 23.9684 14.8747C23.9684 14.2403 24.4812 13.7273 25.1177 13.7273C25.7521 13.7273 26.266 14.2403 26.266 14.8747C26.266 15.5091 25.7521 16.0222 25.1177 16.0222Z" fill="#111111"/>
<path d="M19.9941 22.9821C21.6526 22.9821 22.9971 21.6376 22.9971 19.9791C22.9971 18.3206 21.6526 16.9761 19.9941 16.9761C18.3355 16.9761 16.9911 18.3206 16.9911 19.9791C16.9911 21.6376 18.3355 22.9821 19.9941 22.9821Z" fill="#111111"/>
</svg>
