<svg width="40" height="40" viewBox="0 0 40 40" fill="none" xmlns="http://www.w3.org/2000/svg">
<rect x="0.5" y="0.5" width="39" height="39" rx="9.5" stroke="#111111" stroke-opacity="0.1"/>
<path d="M30 13.9238C29.2563 14.25 28.4637 14.4662 27.6375 14.5712C28.4875 14.0638 29.1363 13.2662 29.4412 12.305C28.6488 12.7775 27.7738 13.1113 26.8412 13.2975C26.0887 12.4963 25.0162 12 23.8462 12C21.5763 12 19.7487 13.8425 19.7487 16.1013C19.7487 16.4262 19.7762 16.7387 19.8438 17.0362C16.435 16.87 13.4188 15.2363 11.3925 12.7475C11.0387 13.3613 10.8313 14.0638 10.8313 14.82C10.8313 16.24 11.5625 17.4987 12.6525 18.2275C11.9937 18.215 11.3475 18.0238 10.8 17.7225C10.8 17.735 10.8 17.7512 10.8 17.7675C10.8 19.76 12.2212 21.415 14.085 21.7962C13.7512 21.8875 13.3875 21.9312 13.01 21.9312C12.7475 21.9312 12.4825 21.9163 12.2337 21.8612C12.765 23.485 14.2725 24.6788 16.065 24.7175C14.67 25.8088 12.8988 26.4662 10.9813 26.4662C10.645 26.4662 10.3225 26.4513 10 26.41C11.8162 27.5813 13.9688 28.25 16.29 28.25C23.835 28.25 27.96 22 27.96 16.5825C27.96 16.4012 27.9538 16.2263 27.945 16.0525C28.7588 15.475 29.4425 14.7538 30 13.9238Z" fill="#111111"/>
</svg>
